<svg xmlns="http://www.w3.org/2000/svg" viewBox="0 0 893 611"><defs><style>.cls-1{fill:#3fa9f5;}.cls-2{fill:#93278f;}.cls-3{fill:#3498db;}.cls-4{fill:#8e44ad;}.cls-5{fill:#662d91;}.cls-6{fill:#9b59b6;}</style></defs><title>Asset 1</title><g id="Layer_2" data-name="Layer 2"><g id="Layer_1-2" data-name="Layer 1"><circle class="cls-1" cx="153" cy="153" r="11.5"/><path d="M153,142a11,11,0,1,1-11,11,11,11,0,0,1,11-11m0-1a12,12,0,1,0,12,12,12,12,0,0,0-12-12Z"/><circle class="cls-2" cx="323.5" cy="126.5" r="3"/><path d="M323.5,124a2.5,2.5,0,1,1-2.5,2.5,2.5,2.5,0,0,1,2.5-2.5m0-1a3.5,3.5,0,1,0,3.5,3.5,3.5,3.5,0,0,0-3.5-3.5Z"/><circle class="cls-2" cx="105" cy="40" r="15.5"/><path d="M105,25A15,15,0,1,1,90,40a15,15,0,0,1,15-15m0-1a16,16,0,1,0,16,16,16,16,0,0,0-16-16Z"/><circle class="cls-1" cx="35" cy="387" r="8.5"/><path d="M35,379a8,8,0,1,1-8,8,8,8,0,0,1,8-8m0-1a9,9,0,1,0,9,9,9,9,0,0,0-9-9Z"/><circle class="cls-3" cx="407.5" cy="18.5" r="18"/><path d="M407.5,1A17.5,17.5,0,1,1,390,18.5,17.52,17.52,0,0,1,407.5,1m0-1A18.5,18.5,0,1,0,426,18.5,18.5,18.5,0,0,0,407.5,0Z"/><circle class="cls-4" cx="693.5" cy="39.5" r="21"/><path d="M693.5,19A20.5,20.5,0,1,1,673,39.5,20.53,20.53,0,0,1,693.5,19m0-1A21.5,21.5,0,1,0,715,39.5,21.51,21.51,0,0,0,693.5,18Z"/><circle class="cls-3" cx="873" cy="150" r="19.5"/><path d="M873,131a19,19,0,1,1-19,19,19,19,0,0,1,19-19m0-1a20,20,0,1,0,20,20,20,20,0,0,0-20-20Z"/><circle class="cls-2" cx="172.5" cy="591.5" r="19"/><path d="M172.5,573A18.5,18.5,0,1,1,154,591.5,18.52,18.52,0,0,1,172.5,573m0-1A19.5,19.5,0,1,0,192,591.5,19.5,19.5,0,0,0,172.5,572Z"/><circle class="cls-2" cx="482" cy="220" r="8.5"/><path d="M482,212a8,8,0,1,1-8,8,8,8,0,0,1,8-8m0-1a9,9,0,1,0,9,9,9,9,0,0,0-9-9Z"/><circle class="cls-5" cx="265.5" cy="375.5" r="11"/><path d="M265.5,365A10.5,10.5,0,1,1,255,375.5,10.51,10.51,0,0,1,265.5,365m0-1A11.5,11.5,0,1,0,277,375.5,11.5,11.5,0,0,0,265.5,364Z"/><circle class="cls-2" cx="690" cy="302" r="11.5"/><path d="M690,291a11,11,0,1,1-11,11,11,11,0,0,1,11-11m0-1a12,12,0,1,0,12,12,12,12,0,0,0-12-12Z"/><circle class="cls-1" cx="856.5" cy="591.5" r="19"/><path d="M856.5,573A18.5,18.5,0,1,1,838,591.5,18.52,18.52,0,0,1,856.5,573m0-1A19.5,19.5,0,1,0,876,591.5,19.5,19.5,0,0,0,856.5,572Z"/><circle class="cls-3" cx="431.5" cy="489.5" r="10"/><path d="M431.5,480a9.5,9.5,0,1,1-9.5,9.5,9.51,9.51,0,0,1,9.5-9.5m0-1A10.5,10.5,0,1,0,442,489.5,10.5,10.5,0,0,0,431.5,479Z"/><circle class="cls-2" cx="806.5" cy="401.5" r="14"/><path d="M806.5,388A13.5,13.5,0,1,1,793,401.5,13.52,13.52,0,0,1,806.5,388m0-1A14.5,14.5,0,1,0,821,401.5,14.5,14.5,0,0,0,806.5,387Z"/><circle class="cls-6" cx="8.5" cy="185.5" r="8"/><path d="M8.5,178A7.5,7.5,0,1,1,1,185.5,7.5,7.5,0,0,1,8.5,178m0-1a8.5,8.5,0,1,0,8.5,8.5A8.51,8.51,0,0,0,8.5,177Z"/></g></g></svg>