<svg xmlns="http://www.w3.org/2000/svg" viewBox="0 0 298.83 345.06"><defs><style>.cls-1{fill:#fbb03b;}.cls-2,.cls-3{fill:#fff;}.cls-2{stroke:#fbb03b;stroke-miterlimit:10;stroke-width:5px;}.cls-4{fill:#f7931e;}</style></defs><title>Asset 1</title><g id="Layer_2" data-name="Layer 2"><g id="Layer_1-2" data-name="Layer 1"><polygon class="cls-1" points="0 86.26 0 258.79 149.41 345.06 298.83 258.79 298.83 86.26 149.41 0 0 86.26"/></g><g id="Layer_3" data-name="Layer 3"><path class="cls-2" d="M85.36,172.13c-35.31,0-63.93,23.1-63.93,51.59H149.3C149.3,195.23,120.67,172.13,85.36,172.13Z"/><path class="cls-2" d="M213.23,172.13c-35.31,0-63.93,23.1-63.93,51.59H277.16C277.16,195.23,248.54,172.13,213.23,172.13Z"/><rect class="cls-3" x="18.07" y="229.55" width="262" height="5.58" rx="1.72" ry="1.72"/></g><g id="Layer_2-2" data-name="Layer 2"><path class="cls-4" d="M170,136.17a22,22,0,0,1-43.92,0c0-12.13,25.45-53.33,22.18-65C145.2,60.3,170,124,170,136.17Z"/><path class="cls-3" d="M160.86,138a12.18,12.18,0,1,1-24.35,0c0-6.72,14.11-29.57,12.29-36C147.12,96,160.86,131.31,160.86,138Z"/></g></g></svg>